Coordinates
version=1
nRows=17
nColumns=40
inDegrees=yes

Units are S.I. units (second, meters, Newtons, ...)
Angles are in degrees.

endheader
time	pelvis_tilt	pelvis_list	pelvis_rotation	pelvis_tx	pelvis_ty	pelvis_tz	hip_flexion_r	hip_adduction_r	hip_rotation_r	knee_angle_r	knee_angle_r_beta	ankle_angle_r	subtalar_angle_r	mtp_angle_r	hip_flexion_l	hip_adduction_l	hip_rotation_l	knee_angle_l	knee_angle_l_beta	ankle_angle_l	subtalar_angle_l	mtp_angle_l	lumbar_extension	lumbar_bending	lumbar_rotation	arm_flex_r	arm_add_r	arm_rot_r	elbow_flex_r	pro_sup_r	wrist_flex_r	wrist_dev_r	arm_flex_l	arm_add_l	arm_rot_l	elbow_flex_l	pro_sup_l	wrist_flex_l	wrist_dev_l
      8.41664286	     -5.35562451	     -1.41288952	     -3.67409345	      0.98734484	      0.91909090	      0.44650464	     31.45673665	     -5.90296048	    -13.57411651	     18.21288179	     18.21288179	      1.68119599	      3.05118194	      9.19696914	     -1.24150023	     -1.95436129	    -13.42609132	      8.75033491	      8.75033491	     16.59515999	      0.36007117	     -8.31357281	    -12.13104858	      2.74711005	      1.80099414	    -14.42683888	    -14.79778821	     -9.95537696	     25.08106014	     47.11857442	      0.00000000	      0.00000000	     20.70667410	    -21.38451864	     -7.25168423	    100.31176446	     48.18864583	      0.00000000	      0.00000000
      8.42828571	     -5.32754933	     -1.22216093	     -3.61836302	      0.98935962	      0.91679955	      0.44862395	     30.96035985	     -5.77062443	    -13.97439839	     17.34593995	     17.34593995	      1.62603935	      3.43388355	      9.39748071	     -2.24674563	     -1.79398703	    -13.42789346	      8.27585861	      8.27585861	     17.06158947	      0.70808621	     -8.39168680	    -11.91306491	      2.60147123	      1.82383976	    -16.07254483	    -14.69730550	    -10.01806021	     25.04485183	     47.09860557	      0.00000000	      0.00000000	     20.62402176	    -21.49497426	     -7.47405574	    101.94697566	     48.24574519	      0.00000000	      0.00000000
      8.43992857	     -5.28039613	     -1.04395365	     -3.56425019	      0.99132566	      0.91451458	      0.45086404	     30.68065347	     -5.72831842	    -14.22872782	     17.29126732	     17.29126732	      1.45637616	      3.51111876	      8.76187841	     -3.19083948	     -1.67946104	    -13.43139595	      7.96638769	      7.96638769	     17.67646910	      1.05779602	     -8.22613328	    -11.80223361	      2.43417803	      1.74745746	    -17.63784820	    -14.57367340	    -10.10223391	     25.49659041	     47.05438239	      0.00000000	      0.00000000	     20.22882283	    -21.68167077	     -7.76363993	    104.13826887	     48.32206353	      0.00000000	      0.00000000
      8.45157143	     -5.27119861	     -0.98516598	     -3.45126891	      0.99323185	      0.91230853	      0.45336659	     30.44592453	     -5.57350668	    -14.25166868	     17.53496319	     17.53496319	      0.52958479	      2.88076501	      5.66466572	     -3.79658299	     -1.81174286	    -13.46713803	      8.27407865	      8.27407865	     18.77331515	      1.48683488	     -7.24852216	    -11.66504678	      2.39162252	      1.22398177	    -19.02782427	    -14.58591139	     -9.94371090	     26.83109126	     46.92830956	      0.00000000	      0.00000000	     19.22984921	    -22.09896858	     -8.76405502	    106.29120478	     48.46802098	      0.00000000	      0.00000000
      8.46321429	     -5.30218808	     -0.98338088	     -3.34552137	      0.99497177	      0.91026131	      0.45604802	     30.36124889	     -5.39665694	    -14.02809452	     18.21667459	     18.21667459	     -0.31832974	      1.80507438	      2.25870007	     -4.18669161	     -2.07686549	    -13.53377845	      8.89075987	      8.89075987	     19.92681984	      1.87259175	     -6.23209828	    -11.50620061	      2.43674004	      1.13632018	    -20.05086897	    -14.52112588	     -9.27024354	     26.86965265	     46.81965097	      0.00000000	      0.00000000	     18.71371602	    -22.05938516	     -9.25770182	    107.65302572	     48.57803354	      0.00000000	      0.00000000
      8.47485714	     -5.34380347	     -1.06283513	     -3.23717543	      0.99644097	      0.90853878	      0.45883976	     30.55898972	     -5.25501875	    -13.77916075	     19.64842951	     19.64842951	     -0.17251001	      0.81831132	      1.37128462	     -4.45198260	     -2.43245296	    -13.31857259	      9.62718420	      9.62718420	     20.50293570	      1.49081161	     -6.11840486	    -11.39493899	      2.53262704	      1.29116703	    -20.86441948	    -14.25279268	     -9.15620165	     26.62025647	     46.80629891	      0.00000000	      0.00000000	     18.41105099	    -21.78529275	     -9.43534938	    108.55110110	     48.61515297	      0.00000000	      0.00000000
      8.48650000	     -5.35065574	     -1.27314734	     -3.10932985	      0.99783992	      0.90726038	      0.46189979	     30.56256110	     -4.89076686	    -13.24001749	     20.85558322	     20.85558322	     -0.58977969	     -0.90329424	     -1.25439218	     -4.49643831	     -3.04359364	    -13.24004817	     10.92853586	     10.92853586	     21.66619409	      1.44694724	     -4.75115348	    -11.39080578	      2.75507986	      0.88900703	    -21.12767733	    -14.18273494	     -8.80448783	     26.71325188	     46.74406344	      0.00000000	      0.00000000	     17.24575102	    -21.75459385	    -10.44048975	    110.01794718	     48.74158133	      0.00000000	      0.00000000
      8.49814286	     -5.37747892	     -1.44161285	     -2.98792703	      0.99901639	      0.90632853	      0.46497317	     30.74227823	     -4.68382068	    -12.90108087	     22.47757053	     22.47757053	     -0.08570058	     -1.95189599	     -1.95234423	     -4.42493796	     -3.59423368	    -12.88778904	     12.27557263	     12.27557263	     22.08609053	      0.73347713	     -4.70082153	    -11.39059832	      2.93301703	      1.08963696	    -21.40696043	    -13.88940030	     -8.64144118	     26.48280824	     46.73233482	      0.00000000	      0.00000000	     16.70015702	    -21.28255604	    -10.59532551	    110.44746984	     48.76571903	      0.00000000	      0.00000000
      8.50978571	     -5.29249128	     -1.67120168	     -2.88122695	      1.00012840	      0.90601900	      0.46819198	     30.68591922	     -4.38153380	    -12.54642047	     23.91786769	     23.91786769	      0.56442844	     -2.93510223	     -2.44816455	     -4.34575083	     -4.23926186	    -12.51558301	     13.85127023	     13.85127023	     22.34189579	     -0.10261295	     -4.69464095	    -11.56462560	      3.14717216	      1.23298026	    -21.42164819	    -13.72161656	     -8.53883329	     26.35867534	     46.72574810	      0.00000000	      0.00000000	     16.00225951	    -20.84751076	    -10.76509230	    110.69380123	     48.78313015	      0.00000000	      0.00000000
      8.52142857	     -5.35572689	     -1.92625741	     -2.74646992	      1.00094015	      0.90598639	      0.47156501	     30.66765397	     -3.99613256	    -12.17677689	     25.09399793	     25.09399793	      1.23667935	     -4.01238329	     -2.67594115	     -3.79346299	     -4.99399793	    -12.03895498	     15.95350567	     15.95350567	     22.45127329	     -1.17627475	     -4.70646262	    -11.62056638	      3.36833555	      1.30801198	    -21.06259006	    -13.37554666	     -8.36841017	     26.29469697	     46.71346001	      0.00000000	      0.00000000	     15.05548721	    -20.29163906	    -11.09017983	    110.89212439	     48.80963911	      0.00000000	      0.00000000
      8.53307143	     -5.34727577	     -2.16094637	     -2.66264316	      1.00166231	      0.90661642	      0.47506902	     30.44431974	     -3.56923919	    -11.78890217	     26.01333876	     26.01333876	      2.24516505	     -4.83185634	     -1.79311469	     -3.21481959	     -5.73160290	    -11.55401893	     18.21845595	     18.21845595	     22.34869508	     -2.29712907	     -4.49048893	    -11.78698447	      3.50180686	      0.73124199	    -19.77352948	    -13.25645084	     -7.53360317	     25.64456220	     46.66891898	      0.00000000	      0.00000000	     13.28347918	    -19.68244365	    -12.62985407	    111.44665592	     48.94324441	      0.00000000	      0.00000000
      8.54471429	     -5.33789715	     -2.39484560	     -2.53461918	      1.00230479	      0.90747577	      0.47854461	     30.05100516	     -3.21251933	    -11.77620425	     26.61990612	     26.61990612	      3.05634020	     -5.12501630	     -1.89092837	     -2.38950810	     -6.51322231	    -10.98879602	     20.87681749	     20.87681749	     21.83681705	     -3.61018671	     -4.94806326	    -11.94565768	      3.65100348	      0.92618243	    -19.11577569	    -12.98572245	     -7.29655713	     25.71255337	     46.64923974	      0.00000000	      0.00000000	     12.33858537	    -19.02877246	    -12.52649054	    111.00198444	     48.92752872	      0.00000000	      0.00000000
      8.55635714	     -5.34414633	     -2.59992023	     -2.43279967	      1.00275475	      0.90869996	      0.48212358	     29.52810355	     -2.82868429	    -11.78691178	     26.89227143	     26.89227143	      3.81150921	     -5.33220277	     -1.80575824	     -1.35602595	     -7.27437409	    -10.34617767	     23.80502578	     23.80502578	     20.91099692	     -5.10863990	     -5.53818690	    -12.11005776	      3.72287347	      1.07702677	    -18.18466620	    -12.69370882	     -7.04265919	     25.88611837	     46.62651407	      0.00000000	      0.00000000	     11.27178995	    -18.32011826	    -12.53170010	    110.31133061	     48.91209435	      0.00000000	      0.00000000
      8.56800000	     -5.29980910	     -2.79606245	     -2.33023358	      1.00312388	      0.91020499	      0.48569947	     28.84316397	     -2.44831672	    -11.90732894	     26.94028942	     26.94028942	      4.51053196	     -5.34455346	     -1.72865651	     -0.17926034	     -8.03537154	     -9.64929599	     27.02608447	     27.02608447	     19.64112999	     -6.69321882	     -6.15534954	    -12.34327207	      3.76967833	      1.20553312	    -17.07736275	    -12.45620011	     -6.81565014	     26.16742891	     46.60378333	      0.00000000	      0.00000000	     10.15389564	    -17.55704515	    -12.46961688	    109.43873458	     48.88667234	      0.00000000	      0.00000000
      8.57964286	     -5.30827443	     -2.94742736	     -2.23342894	      1.00328524	      0.91178884	      0.48926477	     28.11029933	     -2.09052610	    -12.07430632	     26.74541739	     26.74541739	      5.13688826	     -5.20675246	     -1.64065088	      1.27516754	     -8.74070896	     -8.84253622	     30.53325631	     30.53325631	     18.02390478	     -8.36999306	     -6.75765935	    -12.51714911	      3.72942932	      1.32385231	    -15.80449635	    -12.18832201	     -6.58399581	     26.55639001	     46.57776569	      0.00000000	      0.00000000	      9.00135657	    -16.77219643	    -12.37356045	    108.34670615	     48.85355835	      0.00000000	      0.00000000
      8.59128571	     -5.52715338	     -2.93941087	     -2.06373687	      1.00307646	      0.91317564	      0.49247456	     27.61161219	     -1.94277808	    -12.30825464	     26.50774753	     26.50774753	      5.85208068	     -4.89783235	     -1.07082014	      3.14676325	     -9.06151579	     -7.44595608	     34.05013043	     34.05013043	     15.23940634	    -11.36919460	     -8.42323594	    -12.38075094	      3.56420921	      1.10669937	    -14.32521873	    -12.05070072	     -5.77650538	     26.91787204	     46.50423168	      0.00000000	      0.00000000	      7.85404690	    -15.85924772	    -12.93510626	    106.13671940	     48.84538643	      0.00000000	      0.00000000
      8.60292857	     -5.57134573	     -3.18107232	     -1.90269422	      1.00282481	      0.91472658	      0.49584872	     26.74943954	     -1.50655233	    -12.71539947	     25.95460342	     25.95460342	      6.30432037	     -4.51896868	     -1.01215526	      5.07155269	     -9.86139085	     -6.56587834	     38.03399943	     38.03399943	     13.17298889	    -12.72219375	     -8.76133307	    -12.57571038	      3.60176273	      1.29062850	    -12.91279208	    -11.87274960	     -5.52091396	     27.48732776	     46.47013514	      0.00000000	      0.00000000	      6.75270229	    -15.08961540	    -12.57585705	    104.99776307	     48.79448534	      0.00000000	      0.00000000
